<svg width="16" height="15" viewBox="0 0 16 15" fill="none" xmlns="http://www.w3.org/2000/svg">
<path d="M15.7646 3.33371C15.6218 3.08424 15.4174 2.87634 15.1712 2.73029C14.9251 2.58425 14.6456 2.50504 14.36 2.50041H3.78416L3.30495 0.617135C3.25653 0.43534 3.14851 0.275433 2.99848 0.16346C2.84845 0.0514869 2.66524 -0.00595544 2.47871 0.000488718H0.826237C0.607105 0.000488718 0.396949 0.0882832 0.241999 0.244558C0.0870497 0.400834 0 0.612788 0 0.833795C0 1.0548 0.0870497 1.26676 0.241999 1.42303C0.396949 1.57931 0.607105 1.6671 0.826237 1.6671H1.85077L4.13118 10.2168C4.1796 10.3986 4.28762 10.5585 4.43765 10.6705C4.58769 10.7825 4.77089 10.8399 4.95742 10.8335H12.3936C12.5461 10.833 12.6956 10.7899 12.8254 10.709C12.9552 10.6281 13.0602 10.5126 13.1289 10.3751L15.839 4.90866C15.9564 4.66035 16.0111 4.38657 15.9981 4.11176C15.9852 3.83694 15.9049 3.56965 15.7646 3.33371ZM11.8813 9.16686H5.58536L4.2386 4.16702H14.36L11.8813 9.16686Z" fill="white"/>
<path d="M4.5443 15C5.22878 15 5.78366 14.4404 5.78366 13.75C5.78366 13.0597 5.22878 12.5001 4.5443 12.5001C3.85983 12.5001 3.30495 13.0597 3.30495 13.75C3.30495 14.4404 3.85983 15 4.5443 15Z" fill="white"/>
<path d="M12.8067 15C13.4911 15 14.046 14.4404 14.046 13.75C14.046 13.0597 13.4911 12.5001 12.8067 12.5001C12.1222 12.5001 11.5673 13.0597 11.5673 13.75C11.5673 14.4404 12.1222 15 12.8067 15Z" fill="white"/>
</svg>
