<svg width="32" height="29" viewBox="0 0 32 29" fill="none" xmlns="http://www.w3.org/2000/svg">
<path d="M20.4557 14.2227C20.2773 13.9067 20.0217 13.6434 19.714 13.4584C19.4063 13.2734 19.0569 13.1731 18.7 13.1672H5.48021L4.88118 10.7817C4.82066 10.5514 4.68564 10.3489 4.4981 10.207C4.31056 10.0652 4.08155 9.99246 3.84839 10.0006H1.7828C1.50888 10.0006 1.24619 10.1118 1.0525 10.3098C0.858812 10.5077 0.75 10.7762 0.75 11.0561C0.75 11.3361 0.858812 11.6046 1.0525 11.8025C1.24619 12.0005 1.50888 12.1117 1.7828 12.1117H3.06346L5.91398 22.9413C5.9745 23.1716 6.10953 23.3741 6.29707 23.516C6.48461 23.6578 6.71361 23.7306 6.94678 23.7224H16.2419C16.4327 23.7218 16.6195 23.6672 16.7817 23.5648C16.944 23.4623 17.0753 23.3159 17.1611 23.1419L20.5487 16.2176C20.6955 15.9031 20.7639 15.5563 20.7477 15.2082C20.7314 14.8601 20.6312 14.5216 20.4557 14.2227ZM15.6016 21.6114H7.7317L6.04824 15.2782H18.7L15.6016 21.6114Z" fill="#C0C0CA"/>
<path d="M6.43038 29C7.28597 29 7.97957 28.2911 7.97957 27.4167C7.97957 26.5423 7.28597 25.8334 6.43038 25.8334C5.57478 25.8334 4.88118 26.5423 4.88118 27.4167C4.88118 28.2911 5.57478 29 6.43038 29Z" fill="#C0C0CA"/>
<path d="M16.7583 29C17.6139 29 18.3075 28.2911 18.3075 27.4167C18.3075 26.5423 17.6139 25.8334 16.7583 25.8334C15.9027 25.8334 15.2091 26.5423 15.2091 27.4167C15.2091 28.2911 15.9027 29 16.7583 29Z" fill="#C0C0CA"/>
<rect x="12.25" y="1" width="18" height="18" rx="9" fill="#FF3759"/>
<path d="M20.859 9.771C21.4677 9.771 22.0177 9.69767 22.509 9.551C23.0003 9.40433 23.389 9.18433 23.675 8.891C23.9683 8.59767 24.115 8.231 24.115 7.791C24.115 7.395 24.0087 7.03567 23.796 6.713C23.5907 6.39033 23.2863 6.13367 22.883 5.943C22.4797 5.75233 21.9883 5.657 21.409 5.657C20.8663 5.657 20.3897 5.76333 19.979 5.976C19.5683 6.18133 19.2493 6.46733 19.022 6.834C18.802 7.19333 18.692 7.60033 18.692 8.055H20.397C20.397 7.78367 20.4923 7.56367 20.683 7.395C20.8737 7.22633 21.1157 7.142 21.409 7.142C21.607 7.142 21.7683 7.175 21.893 7.241C22.0177 7.29967 22.113 7.38767 22.179 7.505C22.245 7.62233 22.278 7.75433 22.278 7.901C22.278 8.04033 22.245 8.17233 22.179 8.297C22.113 8.42167 22.014 8.53167 21.882 8.627C21.7573 8.72233 21.607 8.79933 21.431 8.858C21.2623 8.90933 21.0717 8.935 20.859 8.935V9.771ZM21.321 13.676C21.9517 13.676 22.4907 13.5807 22.938 13.39C23.3853 13.192 23.73 12.9243 23.972 12.587C24.214 12.2423 24.335 11.8463 24.335 11.399C24.335 11.0103 24.2507 10.6767 24.082 10.398C23.9133 10.1193 23.6713 9.892 23.356 9.716C23.0407 9.53267 22.6703 9.40067 22.245 9.32C21.827 9.232 21.365 9.188 20.859 9.188V10.134C21.1377 10.134 21.3797 10.1597 21.585 10.211C21.7903 10.2623 21.959 10.3393 22.091 10.442C22.2303 10.5373 22.333 10.651 22.399 10.783C22.465 10.915 22.498 11.0617 22.498 11.223C22.498 11.4357 22.4503 11.6153 22.355 11.762C22.2597 11.9087 22.1277 12.015 21.959 12.081C21.7977 12.147 21.607 12.18 21.387 12.18C21.1817 12.18 20.9837 12.1397 20.793 12.059C20.6097 11.9783 20.463 11.8537 20.353 11.685C20.243 11.5163 20.188 11.3073 20.188 11.058H18.362C18.362 11.3953 18.428 11.7217 18.56 12.037C18.6993 12.3523 18.8937 12.6347 19.143 12.884C19.3997 13.1333 19.7113 13.3277 20.078 13.467C20.4447 13.6063 20.859 13.676 21.321 13.676Z" fill="white"/>
<rect x="12.25" y="1" width="18" height="18" rx="9" stroke="white" stroke-width="2"/>
</svg>
