<svg width="21" height="20" viewBox="0 0 21 20" fill="none" xmlns="http://www.w3.org/2000/svg">
<path d="M20.2057 4.7227C20.0273 4.4067 19.7717 4.14336 19.464 3.95837C19.1563 3.77338 18.8069 3.67306 18.45 3.66718H5.23021L4.63118 1.2817C4.57066 1.05143 4.43564 0.848882 4.2481 0.707049C4.06056 0.565217 3.83155 0.492456 3.59839 0.500619H1.5328C1.25888 0.500619 0.996186 0.611825 0.802499 0.809774C0.608812 1.00772 0.5 1.2762 0.5 1.55614C0.5 1.83608 0.608812 2.10456 0.802499 2.30251C0.996186 2.50045 1.25888 2.61166 1.5328 2.61166H2.81346L5.66398 13.4413C5.7245 13.6716 5.85953 13.8741 6.04707 14.016C6.23461 14.1578 6.46361 14.2306 6.69678 14.2224H15.9919C16.1827 14.2218 16.3695 14.1672 16.5317 14.0648C16.694 13.9623 16.8253 13.8159 16.9111 13.6419L20.2987 6.71764C20.4455 6.40311 20.5139 6.05632 20.4977 5.70823C20.4814 5.36013 20.3812 5.02155 20.2057 4.7227ZM15.3516 12.1114H7.4817L5.79824 5.77822H18.45L15.3516 12.1114Z" fill="#95CA00"/>
<path d="M6.18038 19.5C7.03597 19.5 7.72957 18.7911 7.72957 17.9167C7.72957 17.0423 7.03597 16.3334 6.18038 16.3334C5.32478 16.3334 4.63118 17.0423 4.63118 17.9167C4.63118 18.7911 5.32478 19.5 6.18038 19.5Z" fill="#95CA00"/>
<path d="M16.5083 19.5C17.3639 19.5 18.0575 18.7911 18.0575 17.9167C18.0575 17.0423 17.3639 16.3334 16.5083 16.3334C15.6527 16.3334 14.9591 17.0423 14.9591 17.9167C14.9591 18.7911 15.6527 19.5 16.5083 19.5Z" fill="#95CA00"/>
</svg>
