<svg width="20" height="13" viewBox="0 0 20 13" fill="none" xmlns="http://www.w3.org/2000/svg">
<path fill-rule="evenodd" clip-rule="evenodd" d="M0 1.16659C0 0.706348 0.373096 0.333252 0.833333 0.333252H12C12.3536 0.333252 12.6928 0.473727 12.9428 0.723776C13.1929 0.973826 13.3333 1.31296 13.3333 1.66659V2.83325H17.175C17.4327 2.83331 17.6851 2.90807 17.9012 3.04847C18.1174 3.18887 18.2882 3.3889 18.393 3.62436L19.8844 6.98057C19.8843 6.98035 19.8845 6.98079 19.8844 6.98057C19.8845 6.98066 19.8848 6.98141 19.8849 6.9815C19.9604 7.15121 19.9996 7.33482 20 7.52057L20 7.52242L20 9.83325C20 10.0083 19.9655 10.1817 19.8985 10.3435C19.8315 10.5053 19.7333 10.6523 19.6095 10.7761C19.4857 10.8999 19.3387 10.9981 19.1769 11.0651C19.0151 11.1321 18.8418 11.1666 18.6667 11.1666H17.357C17.2339 11.5148 17.0339 11.8348 16.7678 12.101C16.2989 12.5699 15.663 12.8333 15 12.8333C14.337 12.8333 13.7011 12.5699 13.2322 12.101C12.9661 11.8348 12.7661 11.5148 12.643 11.1666H9.02369C8.90056 11.5148 8.7006 11.8348 8.43443 12.101C7.96559 12.5699 7.32971 12.8333 6.66667 12.8333C6.00362 12.8333 5.36774 12.5699 4.8989 12.101C4.63273 11.8348 4.43278 11.5148 4.30964 11.1666H3C2.82491 11.1666 2.65153 11.1321 2.48976 11.0651C2.32799 10.9981 2.181 10.8999 2.05719 10.7761C1.93338 10.6522 1.83517 10.5053 1.76816 10.3435C1.70115 10.1817 1.66667 10.0083 1.66667 9.83325V5.74992C1.66667 5.28968 2.03976 4.91658 2.5 4.91658C2.96024 4.91658 3.33333 5.28968 3.33333 5.74992V9.49992H4.30964C4.43278 9.15167 4.63273 8.83166 4.8989 8.56549C5.36774 8.09664 6.00362 7.83325 6.66667 7.83325C7.32971 7.83325 7.96559 8.09664 8.43443 8.56549C8.7006 8.83166 8.90056 9.15167 9.02369 9.49992H11.6667V1.99992H0.833333C0.373096 1.99992 0 1.62682 0 1.16659ZM13.3333 4.49992V8.46986C13.7904 8.06098 14.3835 7.83325 15 7.83325C15.663 7.83325 16.2989 8.09664 16.7678 8.56549C17.0339 8.83166 17.2339 9.15167 17.357 9.49992H18.3333V7.59425L16.9582 4.49992H13.3333ZM18.3622 7.65927C18.3621 7.65895 18.3619 7.65864 18.3618 7.65833L18.3622 7.65927ZM0.833333 3.66659C0.833333 3.20635 1.20643 2.83325 1.66667 2.83325H5C5.46024 2.83325 5.83333 3.20635 5.83333 3.66659C5.83333 4.12682 5.46024 4.49992 5 4.49992H1.66667C1.20643 4.49992 0.833333 4.12682 0.833333 3.66659ZM6.66667 9.49992C6.44565 9.49992 6.23369 9.58772 6.07741 9.744C5.92113 9.90028 5.83333 10.1122 5.83333 10.3333C5.83333 10.5543 5.92113 10.7662 6.07741 10.9225C6.23369 11.0788 6.44565 11.1666 6.66667 11.1666C6.88768 11.1666 7.09964 11.0788 7.25592 10.9225C7.4122 10.7662 7.5 10.5543 7.5 10.3333C7.5 10.1122 7.4122 9.90028 7.25592 9.744C7.09964 9.58772 6.88768 9.49992 6.66667 9.49992ZM15 9.49992C14.779 9.49992 14.567 9.58772 14.4107 9.744C14.2545 9.90028 14.1667 10.1122 14.1667 10.3333C14.1667 10.5543 14.2545 10.7662 14.4107 10.9225C14.567 11.0788 14.779 11.1666 15 11.1666C15.221 11.1666 15.433 11.0788 15.5893 10.9225C15.7455 10.7662 15.8333 10.5543 15.8333 10.3333C15.8333 10.1122 15.7455 9.90028 15.5893 9.744C15.433 9.58772 15.221 9.49992 15 9.49992Z" fill="#3773E7"/>
</svg>
