<svg width="69" height="73" viewBox="0 0 69 73" fill="none" xmlns="http://www.w3.org/2000/svg">
<path d="M3.72235 17.015C7.23395 13.0016 24.8011 2.71922 31.7057 0.437965C33.446 -0.119974 35.3133 -0.1454 37.0682 0.364959C43.6808 2.42873 61.0243 12.518 65.0713 16.7641C65.8729 17.6209 66.4717 18.6469 66.8233 19.7663C68.522 25.2732 68.5813 46.1025 66.9875 52.6071C66.593 54.131 65.7876 55.5172 64.6591 56.6145C59.9445 61.098 43.0633 70.8449 36.8279 72.6821C35.2512 73.1189 33.5837 73.1053 32.0144 72.6426C25.7593 70.7248 9.46655 61.3352 4.5208 56.7727C3.27816 55.6109 2.39464 54.1173 1.97493 52.4687C0.400869 45.6904 0.493634 24.75 2.23955 19.5792C2.56579 18.6377 3.06909 17.7674 3.72235 17.015Z" fill="black"/>
</svg>
