<svg width="17" height="17" viewBox="0 0 17 17" fill="none" xmlns="http://www.w3.org/2000/svg">
<path d="M8.5 0C3.80603 0 0 3.80603 0 8.5C0 13.194 3.80603 17 8.5 17C13.194 17 17 13.194 17 8.5C17 3.80603 13.194 0 8.5 0ZM8.5 13.433C8.08069 13.433 7.74107 13.0934 7.74107 12.6741C7.74107 12.2548 8.08069 11.9152 8.5 11.9152C8.91931 11.9152 9.25893 12.2548 9.25893 12.6741C9.25893 13.0934 8.91931 13.433 8.5 13.433ZM9.69342 9.26842C9.52159 9.33477 9.37375 9.45136 9.26917 9.60298C9.16459 9.75461 9.10812 9.93423 9.10714 10.1184V10.5491C9.10714 10.6326 9.03884 10.7009 8.95536 10.7009H8.04464C7.96116 10.7009 7.89286 10.6326 7.89286 10.5491V10.1412C7.89286 9.7029 8.01998 9.27031 8.27042 8.90982C8.51518 8.55692 8.8567 8.2875 9.25893 8.13382C9.90402 7.88527 10.3214 7.34453 10.3214 6.75446C10.3214 5.91775 9.50368 5.23661 8.5 5.23661C7.49632 5.23661 6.67857 5.91775 6.67857 6.75446V6.89866C6.67857 6.98214 6.61027 7.05045 6.52679 7.05045H5.61607C5.53259 7.05045 5.46429 6.98214 5.46429 6.89866V6.75446C5.46429 6.00882 5.79063 5.3125 6.38259 4.79453C6.95179 4.29554 7.70312 4.02232 8.5 4.02232C9.29688 4.02232 10.0482 4.29743 10.6174 4.79453C11.2094 5.3125 11.5357 6.00882 11.5357 6.75446C11.5357 7.85112 10.8128 8.83772 9.69342 9.26842Z" fill="#D8DCD3"/>
</svg>
