<svg width="259" height="32" viewBox="0 0 259 32" fill="none" xmlns="http://www.w3.org/2000/svg">
<path d="M0 12.0919C0 4.45895 4.90701 -6.10352e-05 12.4 -6.10352e-05C20.283 -6.10352e-05 24.121 5.08095 24.121 12.157C24.121 19.615 19.574 24.3569 11.756 24.3569C4.132 24.3579 0 19.4079 0 12.0919ZM20.476 12.0919C20.476 6.84795 17.598 2.86795 12.091 2.86795C6.345 2.86795 3.608 6.84796 3.608 12.016C3.608 17.184 6.247 21.3709 11.851 21.3709C17.837 21.4139 20.475 17.3799 20.475 12.1249L20.476 12.0919Z" fill="white"/>
<path d="M27.4761 5.71284H30.9541V7.09785C32.355 6.00064 34.0521 5.34764 35.8271 5.22285C40.6361 5.22285 43.4591 8.23185 43.4591 14.1409C43.4591 21.7739 39.0981 24.2708 34.2791 24.2708C33.1837 24.2564 32.0907 24.1652 31.0081 23.9978V31.3028H27.5311V5.71284H27.4761ZM39.8841 14.7298C39.8841 11.0558 38.8481 8.25383 34.9451 8.25383C33.5368 8.40549 32.1804 8.87127 30.9761 9.61684V21.1848C32.1007 21.4005 33.243 21.5099 34.3881 21.5118C37.9981 21.5128 39.8841 18.6118 39.8841 14.7298Z" fill="white"/>
<path d="M46.8291 5.71284H58.8231V8.49385H50.3081V23.9548H46.8301L46.8291 5.71284Z" fill="white"/>
<path d="M60.033 18.9731C60.033 14.4591 64.1109 13.5211 67.2839 13.4661L71.2839 13.4011V11.3621C71.2839 8.82207 69.9539 8.28706 67.0089 8.28706C65.3753 8.37773 63.7579 8.65965 62.1899 9.12706L61.49 6.48808C63.4861 5.68504 65.6183 5.2742 67.77 5.27806C72.27 5.27806 74.683 6.67805 74.683 10.4241V19.9761C74.683 21.0661 75.483 21.3501 76.351 21.4151L76.1769 24.1151C75.934 24.1345 75.6899 24.1345 75.447 24.1151C73.747 24.1151 71.8379 23.5151 71.5469 21.9341C69.8636 23.3561 67.743 24.1567 65.5399 24.2021C62.0719 24.2171 60.033 22.4181 60.033 18.9731ZM71.2859 19.8451V15.6361L67.386 15.8101C64.878 15.8761 63.439 17.0101 63.439 18.6781C63.439 20.7491 64.639 21.4471 66.383 21.4471C68.1128 21.264 69.7847 20.7189 71.2899 19.8471L71.2859 19.8451Z" fill="white"/>
<path d="M79.561 5.71284H83.029V13.4328H91.643V5.71284H95.121V23.9538H91.643V16.2019H83.029V23.9538H79.561V5.71284Z" fill="white"/>
<path d="M99.4919 5.71284H102.959V16.9129L102.894 19.3548L104.464 16.8798L112.238 5.74684H115.72V23.9559H112.242V12.8659L112.319 10.3578L110.76 12.8978L102.975 23.9538H99.507V5.71284H99.4919Z" fill="white"/>
<path d="M120.11 5.71284H123.577V23.9538H120.11V5.71284ZM128.833 20.8248L123.752 14.6098L130.861 5.72386H134.84L127.524 14.3479L131.024 18.3598C132.177 19.8677 133.746 21.0049 135.538 21.6308L134.971 24.2369C133.205 24.1609 131.199 23.7469 128.789 20.8139L128.833 20.8248Z" fill="white"/>
<path d="M147.538 5.10249H152.117L157.438 20.6615L163.314 5.09151H167.763V23.3425H164.492V13.1165L164.622 9.53951L159.531 23.3395H155.355L150.699 9.4705L150.899 13.1125V23.3325H147.628V5.10249H147.538Z" fill="black"/>
<path d="M170.729 18.3615C170.729 13.8475 174.807 12.9095 177.98 12.8545L181.993 12.7895V10.7505C181.993 8.21051 180.663 7.6755 177.719 7.6755C176.089 7.76608 174.475 8.04801 172.91 8.51549L172.21 5.87652C174.206 5.07293 176.338 4.66206 178.49 4.66649C182.99 4.66649 185.403 6.06649 185.403 9.81249V19.3645C185.403 20.4545 186.21 20.7385 187.071 20.8035L186.897 23.5035C186.654 23.5229 186.41 23.5229 186.167 23.5035C184.467 23.5035 182.558 22.9035 182.252 21.3225C180.571 22.7457 178.453 23.5481 176.251 23.5955C172.779 23.6055 170.729 21.8065 170.729 18.3615ZM181.992 19.2335V15.0245L178.067 15.2105C175.559 15.2755 174.12 16.4105 174.12 18.0775C174.12 20.1495 175.33 20.8475 177.053 20.8475C178.795 20.6657 180.479 20.1155 181.992 19.2335Z" fill="black"/>
<path d="M190.268 5.10152H193.735V6.48653C195.137 5.39079 196.834 4.73798 198.609 4.61153C203.417 4.61153 206.241 7.62053 206.241 13.5295C206.241 21.1625 201.88 23.6595 197.061 23.6595C195.966 23.6444 194.873 23.5532 193.79 23.3865V30.6915H190.325V5.10152H190.268ZM202.654 14.1185C202.654 10.4445 201.618 7.6425 197.704 7.6425C196.292 7.79233 194.932 8.25819 193.725 9.00551V20.5735C194.846 20.7875 195.984 20.897 197.125 20.9005C200.79 20.9015 202.654 18.0005 202.654 14.1185Z" fill="black"/>
<path d="M209.621 5.10152H213.099V23.3425H209.621V5.10152ZM218.343 20.2135L213.273 13.9985L220.381 5.11253H224.35L217.045 13.7365L220.545 17.7485C221.698 19.2566 223.267 20.3938 225.059 21.0195L224.492 23.6255C222.715 23.5495 220.708 23.1355 218.299 20.2025L218.343 20.2135Z" fill="black"/>
<path d="M226.205 14.5225C226.205 7.14051 229.88 4.6335 234.72 4.6335C239.56 4.6335 241.699 7.90452 241.699 13.8255V15.0685H229.705C229.77 20.0405 232.442 20.8475 235.985 20.8475C237.574 20.7485 239.151 20.5038 240.695 20.1165L241.306 22.8425C239.337 23.4352 237.29 23.7292 235.233 23.7145C229.716 23.7465 226.205 21.6095 226.205 14.5225ZM238.035 12.6225C238.035 9.35151 236.868 7.17052 234.285 7.17052C231.702 7.17052 230.011 9.04651 229.749 12.6225H238.035Z" fill="black"/>
<path d="M249.156 7.88252H243.115V5.10152H258.75V7.88252H252.666V23.3435H249.155L249.156 7.88252Z" fill="black"/>
</svg>
