<svg width="24" height="15" viewBox="0 0 24 15" fill="none" xmlns="http://www.w3.org/2000/svg">
<path d="M6 12H5H6ZM16 12H17H16ZM10.05 11C9.49771 11 9.05 11.4477 9.05 12C9.05 12.5523 9.49771 13 10.05 13V11ZM15 1.6H16H15ZM1 0C0.447715 0 0 0.447715 0 1C0 1.55228 0.447715 2 1 2V0ZM5.65 13C6.20228 13 6.65 12.5523 6.65 12C6.65 11.4477 6.20228 11 5.65 11V13ZM4 6.5C4 5.94772 3.55228 5.5 3 5.5C2.44772 5.5 2 5.94772 2 6.5H4ZM2 3C1.44772 3 1 3.44772 1 4C1 4.55228 1.44772 5 2 5V3ZM6 5C6.55228 5 7 4.55228 7 4C7 3.44772 6.55228 3 6 3V5ZM15 3C14.4477 3 14 3.44772 14 4C14 4.55228 14.4477 5 15 5V3ZM20.61 4L20.6102 3H20.61V4ZM21.158 4.356L22.0718 3.9499L22.0716 3.94933L21.158 4.356ZM22.948 8.384L22.0342 8.7901L22.0347 8.79122L22.948 8.384ZM23 8.627H24L24 8.62478L23 8.627ZM23 11.4H24H23ZM22.4 12V13V12ZM20.5 11C19.9477 11 19.5 11.4477 19.5 12C19.5 12.5523 19.9477 13 20.5 13V11ZM8 15C8.79565 15 9.55871 14.6839 10.1213 14.1213L8.70711 12.7071C8.51957 12.8946 8.26522 13 8 13V15ZM10.1213 14.1213C10.6839 13.5587 11 12.7957 11 12H9C9 12.2652 8.89464 12.5196 8.70711 12.7071L10.1213 14.1213ZM11 12C11 11.2043 10.6839 10.4413 10.1213 9.87868L8.70711 11.2929C8.89464 11.4804 9 11.7348 9 12H11ZM10.1213 9.87868C9.55871 9.31607 8.79565 9 8 9V11C8.26522 11 8.51957 11.1054 8.70711 11.2929L10.1213 9.87868ZM8 9C7.20435 9 6.44129 9.31607 5.87868 9.87868L7.29289 11.2929C7.48043 11.1054 7.73478 11 8 11V9ZM5.87868 9.87868C5.31607 10.4413 5 11.2044 5 12H7C7 11.7348 7.10536 11.4804 7.29289 11.2929L5.87868 9.87868ZM5 12C5 12.7956 5.31607 13.5587 5.87868 14.1213L7.29289 12.7071C7.10536 12.5196 7 12.2652 7 12H5ZM5.87868 14.1213C6.44129 14.6839 7.20435 15 8 15V13C7.73478 13 7.48043 12.8946 7.29289 12.7071L5.87868 14.1213ZM18 15C18.7957 15 19.5587 14.6839 20.1213 14.1213L18.7071 12.7071C18.5196 12.8946 18.2652 13 18 13V15ZM20.1213 14.1213C20.6839 13.5587 21 12.7957 21 12H19C19 12.2652 18.8946 12.5196 18.7071 12.7071L20.1213 14.1213ZM21 12C21 11.2043 20.6839 10.4413 20.1213 9.87868L18.7071 11.2929C18.8946 11.4804 19 11.7348 19 12H21ZM20.1213 9.87868C19.5587 9.31607 18.7957 9 18 9V11C18.2652 11 18.5196 11.1054 18.7071 11.2929L20.1213 9.87868ZM18 9C17.2043 9 16.4413 9.31607 15.8787 9.87868L17.2929 11.2929C17.4804 11.1054 17.7348 11 18 11V9ZM15.8787 9.87868C15.3161 10.4413 15 11.2043 15 12H17C17 11.7348 17.1054 11.4804 17.2929 11.2929L15.8787 9.87868ZM15 12C15 12.7957 15.3161 13.5587 15.8787 14.1213L17.2929 12.7071C17.1054 12.5196 17 12.2652 17 12H15ZM15.8787 14.1213C16.4413 14.6839 17.2043 15 18 15V13C17.7348 13 17.4804 12.8946 17.2929 12.7071L15.8787 14.1213ZM10.05 13H15V11H10.05V13ZM16 12V1.6H14V12H16ZM16 1.6C16 1.17566 15.8314 0.768689 15.5314 0.468629L14.1172 1.88284C14.0421 1.80783 14 1.70608 14 1.6H16ZM15.5314 0.468629C15.2313 0.16857 14.8243 0 14.4 0V2C14.2939 2 14.1922 1.95786 14.1172 1.88284L15.5314 0.468629ZM14.4 0H1V2H14.4V0ZM5.65 11H3.6V13H5.65V11ZM3.6 11C3.65252 11 3.70454 11.0103 3.75307 11.0304L2.98771 12.8782C3.18183 12.9586 3.38989 13 3.6 13V11ZM3.75307 11.0304C3.80161 11.0506 3.8457 11.08 3.88284 11.1172L2.46863 12.5314C2.6172 12.6799 2.79358 12.7978 2.98771 12.8782L3.75307 11.0304ZM3.88284 11.1172C3.91999 11.1543 3.94945 11.1984 3.96955 11.2469L2.12179 12.0123C2.2022 12.2064 2.32005 12.3828 2.46863 12.5314L3.88284 11.1172ZM3.96955 11.2469C3.98965 11.2955 4 11.3475 4 11.4H2C2 11.6101 2.04138 11.8182 2.12179 12.0123L3.96955 11.2469ZM4 11.4V6.5H2V11.4H4ZM2 5H6V3H2V5ZM15 5H20.61V3H15V5ZM20.6098 5C20.5324 4.99998 20.4568 4.97755 20.3919 4.93543L21.4815 3.25827C21.2221 3.08979 20.9195 3.00008 20.6102 3L20.6098 5ZM20.3919 4.93543C20.3271 4.89332 20.2759 4.83331 20.2444 4.76267L22.0716 3.94933C21.9458 3.66678 21.7408 3.42675 21.4815 3.25827L20.3919 4.93543ZM20.2442 4.7621L22.0342 8.7901L23.8618 7.9779L22.0718 3.9499L20.2442 4.7621ZM22.0347 8.79122C22.0119 8.74023 22.0001 8.68505 22 8.62922L24 8.62478C23.9995 8.40147 23.9523 8.18074 23.8613 7.97678L22.0347 8.79122ZM22 8.627V11.4H24V8.627H22ZM22 11.4C22 11.3475 22.0103 11.2955 22.0304 11.2469L23.8782 12.0123C23.9586 11.8182 24 11.6101 24 11.4H22ZM22.0304 11.2469C22.0506 11.1984 22.08 11.1543 22.1172 11.1172L23.5314 12.5314C23.6799 12.3828 23.7978 12.2064 23.8782 12.0123L22.0304 11.2469ZM22.1172 11.1172C22.1543 11.08 22.1984 11.0506 22.2469 11.0304L23.0123 12.8782C23.2064 12.7978 23.3828 12.6799 23.5314 12.5314L22.1172 11.1172ZM22.2469 11.0304C22.2955 11.0103 22.3475 11 22.4 11V13C22.6101 13 22.8182 12.9586 23.0123 12.8782L22.2469 11.0304ZM22.4 11H20.5V13H22.4V11ZM15 13H16V11H15V13Z" fill="#FF3759"/>
</svg>
